<?xml version="1.0" encoding="UTF-8"?>
<!DOCTYPE svg PUBLIC "-//W3C//DTD SVG 1.1//EN" "http://www.w3.org/Graphics/SVG/1.1/DTD/svg11.dtd">
<svg xmlns="http://www.w3.org/2000/svg" version="1.1" width="695px" height="695px" style="shape-rendering:geometricPrecision; text-rendering:geometricPrecision; image-rendering:optimizeQuality; fill-rule:evenodd; clip-rule:evenodd" xmlns:xlink="http://www.w3.org/1999/xlink">
<g><path style="opacity:0.953" fill="#e4e6da" d="M 24.5,-0.5 C 239.5,-0.5 454.5,-0.5 669.5,-0.5C 674.868,1.35218 679.868,4.01884 684.5,7.5C 684.5,8.16667 684.833,8.5 685.5,8.5C 685.5,9.16667 685.833,9.5 686.5,9.5C 689.097,13.0338 691.43,16.7004 693.5,20.5C 693.232,22.099 693.566,23.4324 694.5,24.5C 694.5,239.5 694.5,454.5 694.5,669.5C 693.566,670.568 693.232,671.901 693.5,673.5C 692.596,674.209 692.263,675.209 692.5,676.5C 691.662,676.842 691.328,677.508 691.5,678.5C 690.662,678.842 690.328,679.508 690.5,680.5C 689.833,680.5 689.5,680.833 689.5,681.5C 688.833,681.5 688.5,681.833 688.5,682.5C 687.662,682.842 687.328,683.508 687.5,684.5C 686.833,684.5 686.5,684.833 686.5,685.5C 685.833,685.5 685.5,685.833 685.5,686.5C 684.833,686.5 684.5,686.833 684.5,687.5C 683.833,687.5 683.5,687.833 683.5,688.5C 682.508,688.328 681.842,688.662 681.5,689.5C 680.833,689.5 680.5,689.833 680.5,690.5C 679.508,690.328 678.842,690.662 678.5,691.5C 677.508,691.328 676.842,691.662 676.5,692.5C 675.508,692.328 674.842,692.662 674.5,693.5C 673.209,693.263 672.209,693.596 671.5,694.5C 454.833,694.5 238.167,694.5 21.5,694.5C 20.791,693.596 19.791,693.263 18.5,693.5C 15.5229,691.533 12.5229,689.533 9.5,687.5C 9.5,686.833 9.16667,686.5 8.5,686.5C 8.5,685.833 8.16667,685.5 7.5,685.5C 7.5,684.833 7.16667,684.5 6.5,684.5C 5.48837,683.128 4.48837,681.795 3.5,680.5C 3.06795,679.29 2.40128,678.29 1.5,677.5C 1.67158,676.508 1.33825,675.842 0.5,675.5C 0.737305,674.209 0.403972,673.209 -0.5,672.5C -0.5,455.833 -0.5,239.167 -0.5,22.5C 0.403972,21.791 0.737305,20.791 0.5,19.5C 3.21315,14.0682 6.87982,9.40149 11.5,5.5C 12.1667,5.5 12.5,5.16667 12.5,4.5C 16.4206,2.42182 20.4206,0.755156 24.5,-0.5 Z"/></g>
<g><path style="opacity:0.004" fill="#fffea8" d="M 12.5,4.5 C 11.8333,4.5 11.5,4.83333 11.5,5.5C 9.02482,5.2533 9.02482,4.58664 11.5,3.5C 12.1067,3.62358 12.44,3.95691 12.5,4.5 Z"/></g>
<g><path style="opacity:0.004" fill="#77766a" d="M 684.5,7.5 C 684.897,6.47498 685.563,6.30831 686.5,7C 687.774,7.97722 687.774,8.81056 686.5,9.5C 685.833,9.5 685.5,9.16667 685.5,8.5C 684.833,8.5 684.5,8.16667 684.5,7.5 Z"/></g>
<g><path style="opacity:0.012" fill="#fffec6" d="M -0.5,17.5 C 0.338246,17.8417 0.67158,18.5084 0.5,19.5C 0.166667,19.5 -0.166667,19.5 -0.5,19.5C -0.5,18.8333 -0.5,18.1667 -0.5,17.5 Z"/></g>
<g><path style="opacity:0.012" fill="#fefffe" d="M 694.5,18.5 C 694.5,19.1667 694.5,19.8333 694.5,20.5C 694.167,20.5 693.833,20.5 693.5,20.5C 693.328,19.5084 693.662,18.8417 694.5,18.5 Z"/></g>
<g><path style="opacity:1" fill="#010101" d="M 231.5,147.5 C 267.5,147.5 303.5,147.5 339.5,147.5C 339.5,155.5 339.5,163.5 339.5,171.5C 349.5,171.5 359.5,171.5 369.5,171.5C 369.5,304.833 369.5,438.167 369.5,571.5C 343.833,571.5 318.167,571.5 292.5,571.5C 292.5,563.5 292.5,555.5 292.5,547.5C 282.5,547.5 272.5,547.5 262.5,547.5C 262.5,446.167 262.5,344.833 262.5,243.5C 260.167,243.5 257.833,243.5 255.5,243.5C 255.5,235.167 255.5,226.833 255.5,218.5C 247.5,218.5 239.5,218.5 231.5,218.5C 231.5,194.833 231.5,171.167 231.5,147.5 Z"/></g>
<g><path style="opacity:1" fill="#2d5240" d="M 233.5,149.5 C 268.167,149.5 302.833,149.5 337.5,149.5C 337.5,281.5 337.5,413.5 337.5,545.5C 313.167,545.5 288.833,545.5 264.5,545.5C 264.667,436.166 264.5,326.833 264,217.5C 253.916,216.514 243.749,216.181 233.5,216.5C 233.5,194.167 233.5,171.833 233.5,149.5 Z"/></g>
<g><path style="opacity:1" fill="#010201" d="M 385.5,475.5 C 411.167,475.5 436.833,475.5 462.5,475.5C 462.5,483.5 462.5,491.5 462.5,499.5C 471.986,500.494 481.652,500.827 491.5,500.5C 491.5,524.167 491.5,547.833 491.5,571.5C 466.167,571.5 440.833,571.5 415.5,571.5C 415.5,563.167 415.5,554.833 415.5,546.5C 405.5,546.5 395.5,546.5 385.5,546.5C 385.5,522.833 385.5,499.167 385.5,475.5 Z"/></g>
<g><path style="opacity:0.984" fill="#484a46" d="M 385.5,475.5 C 385.5,499.167 385.5,522.833 385.5,546.5C 395.5,546.5 405.5,546.5 415.5,546.5C 415.5,554.833 415.5,563.167 415.5,571.5C 414.508,563.684 414.174,555.684 414.5,547.5C 404.5,547.5 394.5,547.5 384.5,547.5C 384.169,523.328 384.502,499.328 385.5,475.5 Z"/></g>
<g><path style="opacity:0.992" fill="#333331" d="M 462.5,499.5 C 472.5,499.5 482.5,499.5 492.5,499.5C 492.831,523.672 492.498,547.672 491.5,571.5C 491.5,547.833 491.5,524.167 491.5,500.5C 481.652,500.827 471.986,500.494 462.5,499.5 Z"/></g>
<g><path style="opacity:1" fill="#1c3227" d="M 387.5,477.5 C 387.5,499.833 387.5,522.167 387.5,544.5C 411.5,544.5 435.5,544.5 459.5,544.5C 459.5,522.167 459.5,499.833 459.5,477.5C 460.497,499.994 460.831,522.661 460.5,545.5C 435.833,545.5 411.167,545.5 386.5,545.5C 386.169,522.661 386.503,499.994 387.5,477.5 Z"/></g>
<g><path style="opacity:1" fill="#2d5240" d="M 387.5,477.5 C 411.5,477.5 435.5,477.5 459.5,477.5C 459.5,499.833 459.5,522.167 459.5,544.5C 435.5,544.5 411.5,544.5 387.5,544.5C 387.5,522.167 387.5,499.833 387.5,477.5 Z"/></g>
<g><path style="opacity:0.016" fill="#dedede" d="M 693.5,673.5 C 693.833,673.5 694.167,673.5 694.5,673.5C 694.5,674.5 694.5,675.5 694.5,676.5C 694.167,676.5 693.833,676.5 693.5,676.5C 693.5,675.5 693.5,674.5 693.5,673.5 Z"/></g>
<g><path style="opacity:0.008" fill="#fffeac" d="M -0.5,675.5 C -0.166667,675.5 0.166667,675.5 0.5,675.5C 0.5,676.167 0.5,676.833 0.5,677.5C 0.166667,677.5 -0.166667,677.5 -0.5,677.5C -0.5,676.833 -0.5,676.167 -0.5,675.5 Z"/></g>
<g><path style="opacity:0.01" fill="#fefffe" d="M 692.5,676.5 C 692.833,676.5 693.167,676.5 693.5,676.5C 693.672,677.492 693.338,678.158 692.5,678.5C 692.5,677.833 692.5,677.167 692.5,676.5 Z"/></g>
<g><path style="opacity:0.008" fill="#a9a894" d="M 0.5,677.5 C 0.833333,677.5 1.16667,677.5 1.5,677.5C 1.16667,680.167 0.833333,680.167 0.5,677.5 Z"/></g>
<g><path style="opacity:0.01" fill="#fefffe" d="M 691.5,678.5 C 691.833,678.5 692.167,678.5 692.5,678.5C 692.672,679.492 692.338,680.158 691.5,680.5C 691.5,679.833 691.5,679.167 691.5,678.5 Z"/></g>
<g><path style="opacity:0.016" fill="#bebfbe" d="M 690.5,680.5 C 690.833,680.5 691.167,680.5 691.5,680.5C 691.315,681.17 690.981,681.17 690.5,680.5 Z"/></g>
<g><path style="opacity:0.012" fill="#c5c5c5" d="M 3.5,680.5 C 3.63101,681.239 3.46434,681.906 3,682.5C 2.30831,681.563 2.47498,680.897 3.5,680.5 Z"/></g>
<g><path style="opacity:0.01" fill="#fffed8" d="M 689.5,681.5 C 689.833,681.5 690.167,681.5 690.5,681.5C 690.573,683.027 689.906,684.027 688.5,684.5C 688.5,683.833 688.5,683.167 688.5,682.5C 689.167,682.5 689.5,682.167 689.5,681.5 Z"/></g>
<g><path style="opacity:0.005" fill="#fefffe" d="M 6.5,684.5 C 7.16667,684.5 7.5,684.833 7.5,685.5C 8.16667,685.5 8.5,685.833 8.5,686.5C 9.16667,686.5 9.5,686.833 9.5,687.5C 7.73201,688.507 6.39867,687.841 5.5,685.5C 5.62358,684.893 5.95691,684.56 6.5,684.5 Z"/></g>
<g><path style="opacity:0.016" fill="#bebfbe" d="M 687.5,684.5 C 687.833,684.5 688.167,684.5 688.5,684.5C 688.315,685.17 687.981,685.17 687.5,684.5 Z"/></g>
<g><path style="opacity:0.016" fill="#fefffe" d="M 686.5,685.5 C 686.833,685.5 687.167,685.5 687.5,685.5C 687.315,686.17 686.981,686.17 686.5,685.5 Z"/></g>
<g><path style="opacity:0.016" fill="#fefffe" d="M 685.5,686.5 C 685.833,686.5 686.167,686.5 686.5,686.5C 686.315,687.17 685.981,687.17 685.5,686.5 Z"/></g>
<g><path style="opacity:0.016" fill="#feffbe" d="M 684.5,687.5 C 684.833,687.5 685.167,687.5 685.5,687.5C 685.315,688.17 684.981,688.17 684.5,687.5 Z"/></g>
<g><path style="opacity:0.012" fill="#fefffe" d="M 683.5,688.5 C 683.833,688.5 684.167,688.5 684.5,688.5C 684.315,689.17 683.981,689.17 683.5,688.5 Z"/></g>
<g><path style="opacity:0.008" fill="#8d8d8d" d="M 681.5,690.5 C 681.5,690.167 681.5,689.833 681.5,689.5C 682.167,689.5 682.833,689.5 683.5,689.5C 683.158,690.338 682.492,690.672 681.5,690.5 Z"/></g>
<g><path style="opacity:0.016" fill="#fefffe" d="M 680.5,690.5 C 680.833,690.5 681.167,690.5 681.5,690.5C 681.315,691.17 680.981,691.17 680.5,690.5 Z"/></g>
<g><path style="opacity:0.008" fill="#e1e1e1" d="M 678.5,692.5 C 678.5,692.167 678.5,691.833 678.5,691.5C 679.167,691.5 679.833,691.5 680.5,691.5C 680.158,692.338 679.492,692.672 678.5,692.5 Z"/></g>
<g><path style="opacity:0.008" fill="#fefffe" d="M 676.5,693.5 C 676.5,693.167 676.5,692.833 676.5,692.5C 677.167,692.5 677.833,692.5 678.5,692.5C 678.158,693.338 677.492,693.672 676.5,693.5 Z"/></g>
<g><path style="opacity:0.016" fill="#fffed5" d="M 16.5,694.5 C 16.8417,693.662 17.5084,693.328 18.5,693.5C 18.5,693.833 18.5,694.167 18.5,694.5C 17.8333,694.5 17.1667,694.5 16.5,694.5 Z"/></g>
<g><path style="opacity:0.012" fill="#fffee2" d="M 674.5,694.5 C 674.5,694.167 674.5,693.833 674.5,693.5C 675.167,693.5 675.833,693.5 676.5,693.5C 676.5,693.833 676.5,694.167 676.5,694.5C 675.833,694.5 675.167,694.5 674.5,694.5 Z"/></g>
</svg>
