<svg width="547" height="409" viewBox="0 0 547 409" fill="none" xmlns="http://www.w3.org/2000/svg">
<g clip-path="url(#clip0_45_5588)">
<path d="M427.685 160.143C416.16 103.331 335.265 72.0896 247.001 90.364C158.737 108.638 96.5278 169.508 108.053 226.32C119.577 283.132 200.472 314.373 288.736 296.099C377 277.824 439.21 216.955 427.685 160.143Z" stroke="#D7F75C" stroke-miterlimit="10"/>
<path d="M444.075 147.253C431.275 84.1571 341.211 49.5054 242.912 69.8566C144.612 90.2078 75.3017 157.855 88.1017 220.951C100.902 284.048 190.966 318.699 289.265 298.348C387.564 277.997 456.875 210.35 444.075 147.253Z" stroke="#D7F75C" stroke-miterlimit="10"/>
<path d="M460.973 139.098C446.946 69.9581 347.935 32.0528 239.825 54.4337C131.715 76.8145 55.4463 151.006 69.4732 220.146C83.5001 289.285 182.511 327.191 290.621 304.81C398.73 282.429 474.999 208.237 460.973 139.098Z" stroke="#D7F75C" stroke-miterlimit="10"/>
<path d="M478.219 135.526C462.956 60.2933 355.221 19.0469 237.587 43.3996C119.953 67.7523 36.965 148.482 52.228 223.715C67.4911 298.947 175.226 340.194 292.86 315.841C410.494 291.488 493.482 210.759 478.219 135.526Z" stroke="#D7F75C" stroke-miterlimit="10"/>
<path d="M495.309 136.493C478.847 55.3459 362.862 10.8124 236.25 37.0247C109.637 63.237 20.3431 150.269 36.8055 231.416C53.2679 312.563 169.253 357.096 295.865 330.884C422.478 304.672 511.772 217.64 495.309 136.493Z" stroke="#D7F75C" stroke-miterlimit="10"/>
<path d="M512.474 142.174C494.875 55.4226 371.061 7.77657 235.927 35.7538C100.793 63.731 5.51196 156.737 23.1109 243.489C40.7098 330.24 164.524 377.886 299.658 349.909C434.792 321.932 530.073 228.926 512.474 142.174Z" stroke="#D7F75C" stroke-miterlimit="10"/>
<path d="M411.95 176.745C401.836 126.898 330.213 99.6183 251.976 115.814C173.738 132.01 118.512 185.548 128.626 235.395C138.739 285.242 210.362 312.521 288.6 296.325C366.837 280.13 422.063 226.591 411.95 176.745Z" stroke="#D7F75C" stroke-miterlimit="10"/>
<path d="M171.504 286.827C159.999 277.435 152.177 265.611 149.417 251.884C140.416 207.134 188.758 159.203 257.37 144.829C325.983 130.455 388.899 155.082 397.892 199.824C400.801 214.329 397.697 229.169 389.827 243.094" stroke="#D7F75C" stroke-miterlimit="10"/>
<path d="M178.752 290.331C175.359 285.024 172.957 279.213 171.703 272.971C163.745 233.379 205.032 191.299 263.929 178.959C322.819 166.627 377.009 188.72 384.974 228.304C386.315 234.977 386.26 241.724 384.951 248.394" stroke="#D7F75C" stroke-miterlimit="10"/>
<path d="M193.862 295.797C188.203 262.675 222.815 227.824 271.945 217.543C321.19 207.235 366.556 225.47 373.974 258.344" stroke="#D7F75C" stroke-miterlimit="10"/>
<path d="M220.679 301.246C227.585 282.525 250.306 265.561 279.618 259.424C309.208 253.232 336.894 259.889 350.339 274.618" stroke="#D7F75C" stroke-miterlimit="10"/>
<path d="M97.4838 90.6439C97.4838 90.6439 115.13 67.6089 149.559 112.575C184.656 158.43 232.915 249.934 250.008 302.057" stroke="#D7F75C" stroke-miterlimit="10"/>
<path d="M176.306 49.7012C176.306 49.7012 182.627 43.0883 192.18 60.3414C201.74 77.602 204.702 82.7382 215.781 114.756C226.852 146.782 272.623 300.524 272.623 300.524" stroke="#D7F75C" stroke-miterlimit="10"/>
<path d="M30.6215 160.319C30.6215 160.319 51.3602 129.137 78.9941 134.198C106.628 139.258 126.072 160.161 134.538 168.119C143.004 176.076 188.812 229.524 230.869 300.852" stroke="#D7F75C" stroke-miterlimit="10"/>
<path d="M0.211428 229.607C0.211428 229.607 13.6305 196.286 41.4688 188.516C69.3072 180.747 99.3085 187.464 138.196 222.255C177.084 257.045 206.721 296.643 206.721 296.643" stroke="#D7F75C" stroke-miterlimit="10"/>
<path d="M4.89092 296.337C4.89092 296.337 24.3843 246.461 58.9327 235.545C93.4734 224.636 126.601 238.848 160.201 265.949C182.593 285.957 187.025 290.954 187.025 290.954" stroke="#D7F75C" stroke-miterlimit="10"/>
<path d="M47.3877 353.553C47.3877 353.553 62.2 295.64 92.8898 279.429C123.572 263.226 141.657 267.674 173.937 285.913" stroke="#D7F75C" stroke-miterlimit="10"/>
<path d="M122.976 392.488C122.976 392.488 129.262 334.13 152.912 306.544C169.901 289.903 180.679 291.644 196.306 295.024" stroke="#D7F75C" stroke-miterlimit="10"/>
<path d="M220.414 409.008C220.414 409.008 213.629 317.357 236.563 301.855" stroke="#D7F75C" stroke-miterlimit="10"/>
<path d="M325.962 397.804C325.962 397.804 306.971 308.547 297.759 295.842" stroke="#D7F75C" stroke-miterlimit="10"/>
<path d="M423.233 361.333C423.233 361.333 390.891 274.527 354.235 273.501" stroke="#D7F75C" stroke-miterlimit="10"/>
<path d="M499.06 305.578C499.06 305.578 433.735 194.364 376.132 258.858" stroke="#D7F75C" stroke-miterlimit="10"/>
<path d="M541.612 237.189C541.612 237.189 459.075 127.587 386.827 249.491" stroke="#D7F75C" stroke-miterlimit="10"/>
<path d="M546.138 168.648C546.138 168.648 474.352 88.4444 405.489 193.493C378.414 241.021 375.106 259.877 375.106 259.877" stroke="#D7F75C" stroke-miterlimit="10"/>
<path d="M521.982 115.693C521.982 115.693 493.033 77.8754 449.632 94.3054C403.406 109.05 368.644 217.494 356.79 272.293" stroke="#D7F75C" stroke-miterlimit="10"/>
<path d="M443.698 55.9591C443.698 55.9591 403.555 28.2506 368.432 115.182C344.296 174.921 337.766 282.335 337.766 282.335" stroke="#D7F75C" stroke-miterlimit="10"/>
<path d="M341.135 27.4861C341.135 27.4861 320.414 50.4442 317.993 156.712C315.572 262.979 317.08 290.581 317.08 290.581" stroke="#D7F75C" stroke-miterlimit="10"/>
<path d="M256.53 29.44L294.536 296.897" stroke="#D7F75C" stroke-miterlimit="10"/>
<path d="M333.585 104.841C357.06 80.6044 356.451 41.9331 332.224 18.4663C307.996 -5.0006 269.325 -4.37663 245.849 19.8599C222.374 44.0965 222.983 82.7678 247.21 106.235C271.438 129.702 310.109 129.078 333.585 104.841Z" fill="#824FE7" stroke="#353537" stroke-miterlimit="10"/>
<path d="M256.709 53.5845C260.34 49.8356 260.245 43.8528 256.496 40.2215C252.747 36.5903 246.764 36.6857 243.133 40.4346C239.501 44.1835 239.597 50.1664 243.346 53.7976C247.095 57.4289 253.077 57.3335 256.709 53.5845Z" fill="#BA9AFF" stroke="#353537" stroke-miterlimit="10"/>
<path d="M244.611 66.0754C243.013 67.725 240.381 67.767 238.731 66.1692C237.082 64.5714 237.04 61.939 238.637 60.2895C240.235 58.6399 242.867 58.598 244.517 60.1957C246.167 61.7935 246.209 64.4259 244.611 66.0754Z" fill="#BA9AFF" stroke="#353537" stroke-miterlimit="10"/>
<path d="M205.994 277.305C197.615 278.938 191.447 285.479 189.864 293.359C202.067 297.477 215.56 300.216 229.898 301.405C230.417 298.851 230.46 296.173 229.928 293.457C227.774 282.386 217.059 275.155 205.987 277.313L205.994 277.305Z" fill="#824FE7" stroke="#353537" stroke-miterlimit="10"/>
</g>
<defs>
<clipPath id="clip0_45_5588">
<rect width="547" height="409" fill="white"/>
</clipPath>
</defs>
</svg>
