<svg width="320" height="320" viewBox="0 0 320 320" fill="none" xmlns="http://www.w3.org/2000/svg">
<g clip-path="url(#clip0_45_6614)">
<path d="M160.254 247.088C160.254 250.546 175.552 253.353 194.416 253.353C213.28 253.353 228.578 250.546 228.578 247.088V191.535H160.254V247.088Z" fill="#F0926C" stroke="#353537" stroke-miterlimit="10"/>
<path d="M168.736 190.601C168.736 192.899 180.118 194.77 194.149 194.77C208.18 194.77 219.562 192.907 219.562 190.601V181.078H168.736V190.601Z" fill="#FBC6F1" stroke="#353537" stroke-miterlimit="10"/>
<path d="M194.149 185.253C208.184 185.253 219.562 183.387 219.562 181.085C219.562 178.782 208.184 176.916 194.149 176.916C180.114 176.916 168.736 178.782 168.736 181.085C168.736 183.387 180.114 185.253 194.149 185.253Z" fill="#FBC6F1" stroke="#353537" stroke-miterlimit="10"/>
<path d="M69.7495 75.1855H238.476V98.618C238.476 129.26 213.663 154.129 183.109 154.129H125.125C94.5627 154.129 69.7578 129.251 69.7578 98.618V75.1855H69.7495Z" fill="#E5F887" stroke="#353537" stroke-miterlimit="10"/>
<path d="M113.077 42.1875V79.7796" stroke="#353537" stroke-miterlimit="10"/>
<path d="M137.657 51.7925C137.657 31.9522 121.617 15.8711 101.828 15.8711C82.0394 15.8711 66 31.9522 66 51.7925V71.0062V75.1831C66 87.1792 75.6987 96.903 87.6637 96.903C99.6287 96.903 109.327 87.1792 109.327 75.1831V42.6033" fill="#E5F887"/>
<path d="M137.657 51.7925C137.657 31.9522 121.617 15.8711 101.828 15.8711C82.0394 15.8711 66 31.9522 66 51.7925V71.0062V75.1831C66 87.1792 75.6987 96.903 87.6637 96.903C99.6287 96.903 109.327 87.1792 109.327 75.1831V42.6033" stroke="#353537" stroke-miterlimit="10"/>
<path d="M165.153 94.7901V38.1513C165.153 19.8481 150.355 5.01172 132.099 5.01172C113.843 5.01172 99.0454 19.8481 99.0454 38.1513V60.4977V79.7616C99.0454 90.8304 107.994 99.8024 119.034 99.8024C130.074 99.8024 139.023 90.8304 139.023 79.7616V49.7046" fill="#E5F887"/>
<path d="M165.153 94.7901V38.1513C165.153 19.8481 150.355 5.01172 132.099 5.01172C113.843 5.01172 99.0454 19.8481 99.0454 38.1513V60.4977V79.7616C99.0454 90.8304 107.994 99.8024 119.034 99.8024C130.074 99.8024 139.023 90.8304 139.023 79.7616V49.7046" stroke="#353537" stroke-miterlimit="10"/>
<path d="M200.423 20.4752C194.666 8.36216 182.342 0 168.069 0C148.28 0 132.241 16.0811 132.241 35.9214V60.1474V81.0319C132.241 93.028 141.94 102.752 153.905 102.752C165.87 102.752 175.568 93.028 175.568 81.0319V48.4521" fill="#E5F887"/>
<path d="M200.423 20.4752C194.666 8.36216 182.342 0 168.069 0C148.28 0 132.241 16.0811 132.241 35.9214V60.1474V81.0319C132.241 93.028 141.94 102.752 153.905 102.752C165.87 102.752 175.568 93.028 175.568 81.0319V48.4521" stroke="#353537" stroke-miterlimit="10"/>
<path d="M172.494 135.048C157.504 133.143 145.989 121.807 145.989 108.107V102.409C145.989 102.109 145.989 101.816 146.006 101.516" fill="#E5F887"/>
<path d="M172.494 135.048C157.504 133.143 145.989 121.807 145.989 108.107V102.409C145.989 102.109 145.989 101.816 146.006 101.516" stroke="#353537" stroke-miterlimit="10"/>
<path d="M216.854 135.333H176.951C175.435 135.333 173.952 135.241 172.494 135.049" fill="#E5F887"/>
<path d="M216.854 135.333H176.951C175.435 135.333 173.952 135.241 172.494 135.049" stroke="#353537" stroke-miterlimit="10"/>
<path d="M216.396 77.5397V65.5771V158.304C216.396 170.3 206.697 180.024 194.732 180.024C182.767 180.024 173.069 170.3 173.069 158.304V155.882V51.551C173.069 34.1501 187.708 20.0488 205.772 20.0488C217.812 20.0488 228.336 34.0498 234.01 43.381C236.843 48.0424 239.909 52.5618 243.201 56.9142C247.292 62.3358 252.791 71.7088 254.307 84.3732V108.148C254.307 123.16 240.468 135.331 223.387 135.331H216.854" fill="#E5F887"/>
<path d="M216.396 77.5397V65.5771V158.304C216.396 170.3 206.697 180.024 194.732 180.024C182.767 180.024 173.069 170.3 173.069 158.304V155.882V51.551C173.069 34.1501 187.708 20.0488 205.772 20.0488C217.812 20.0488 228.336 34.0498 234.01 43.381C236.843 48.0424 239.909 52.5618 243.201 56.9142C247.292 62.3358 252.791 71.7088 254.307 84.3732V108.148C254.307 123.16 240.468 135.331 223.387 135.331H216.854" stroke="#353537" stroke-miterlimit="10"/>
<path d="M173.069 117.672C171.036 121.106 167.303 123.403 163.028 123.403C156.587 123.403 151.363 118.165 151.363 111.708C151.363 108.074 153.013 104.832 155.604 102.686" fill="#E5F887"/>
<path d="M173.069 117.672C171.036 121.106 167.303 123.403 163.028 123.403C156.587 123.403 151.363 118.165 151.363 111.708C151.363 108.074 153.013 104.832 155.604 102.686" stroke="#353537" stroke-miterlimit="10"/>
<path d="M163.028 100.012C166.919 100.012 170.369 101.925 172.494 104.865L163.028 100.012Z" fill="#E5F887"/>
<path d="M163.028 100.012C166.919 100.012 170.369 101.925 172.494 104.865" stroke="#353537" stroke-miterlimit="10"/>
<path d="M153.905 102.751C161.678 102.751 168.494 98.6495 172.319 92.4844L153.905 102.751Z" fill="#E5F887"/>
<path d="M153.905 102.751C161.678 102.751 168.494 98.6495 172.319 92.4844" stroke="#353537" stroke-miterlimit="10"/>
<path d="M132.241 60.1484V81.033C132.241 93.029 141.94 102.753 153.905 102.753" fill="#E5F887"/>
<path d="M132.241 60.1484V81.033C132.241 93.029 141.94 102.753 153.905 102.753" stroke="#353537" stroke-miterlimit="10"/>
<path d="M83.0393 92.4942C89.4818 92.4942 94.7044 87.258 94.7044 80.7988C94.7044 74.3397 89.4818 69.1035 83.0393 69.1035C76.5969 69.1035 71.3743 74.3397 71.3743 80.7988C71.3743 87.258 76.5969 92.4942 83.0393 92.4942Z" fill="#E5F887" stroke="#353537" stroke-miterlimit="10"/>
<path d="M71.3743 66.6219C74.5405 63.9988 78.6066 62.4199 83.0393 62.4199C86.6888 62.4199 90.0883 63.4892 92.9463 65.3354" fill="#E5F887"/>
<path d="M71.3743 66.6219C74.5405 63.9988 78.6066 62.4199 83.0393 62.4199C86.6888 62.4199 90.0883 63.4892 92.9463 65.3354" stroke="#353537" stroke-miterlimit="10"/>
<path d="M116.368 94.9981C122.81 94.9981 128.033 89.7619 128.033 83.3028C128.033 76.8436 122.81 71.6074 116.368 71.6074C109.926 71.6074 104.703 76.8436 104.703 83.3028C104.703 89.7619 109.926 94.9981 116.368 94.9981Z" fill="#E5F887" stroke="#353537" stroke-miterlimit="10"/>
<path d="M104.703 69.1258C107.869 66.5027 111.935 64.9238 116.368 64.9238C120.017 64.9238 123.417 65.9931 126.275 67.8393" fill="#E5F887"/>
<path d="M104.703 69.1258C107.869 66.5027 111.935 64.9238 116.368 64.9238C120.017 64.9238 123.417 65.9931 126.275 67.8393" stroke="#353537" stroke-miterlimit="10"/>
<path d="M149.697 96.67C156.139 96.67 161.362 91.4338 161.362 84.9746C161.362 78.5155 156.139 73.2793 149.697 73.2793C143.254 73.2793 138.032 78.5155 138.032 84.9746C138.032 91.4338 143.254 96.67 149.697 96.67Z" fill="#E5F887" stroke="#353537" stroke-miterlimit="10"/>
<path d="M138.032 70.7977C141.198 68.1746 145.264 66.5957 149.697 66.5957C153.346 66.5957 156.746 67.665 159.604 69.5112" fill="#E5F887"/>
<path d="M138.032 70.7977C141.198 68.1746 145.264 66.5957 149.697 66.5957C153.346 66.5957 156.746 67.665 159.604 69.5112" stroke="#353537" stroke-miterlimit="10"/>
<path d="M194.691 175.197C201.133 175.197 206.356 169.961 206.356 163.502C206.356 157.043 201.133 151.807 194.691 151.807C188.248 151.807 183.026 157.043 183.026 163.502C183.026 169.961 188.248 175.197 194.691 175.197Z" fill="#E5F887" stroke="#353537" stroke-miterlimit="10"/>
<path d="M183.026 149.325C186.192 146.702 190.258 145.123 194.691 145.123C198.34 145.123 201.74 146.192 204.598 148.039" fill="#E5F887"/>
<path d="M183.026 149.325C186.192 146.702 190.258 145.123 194.691 145.123C198.34 145.123 201.74 146.192 204.598 148.039" stroke="#353537" stroke-miterlimit="10"/>
<path d="M219.354 166.176L246.467 174.454" stroke="#F5F0EE" stroke-miterlimit="10"/>
<path d="M221.087 160.052L239.368 158.014" stroke="#F5F0EE" stroke-miterlimit="10"/>
<path d="M216.696 171.57L224.386 177.393" stroke="#F5F0EE" stroke-miterlimit="10"/>
<path d="M99.4286 307.386C114.377 317.386 133.757 315.523 146.539 304.003C147.205 304.571 147.897 305.106 148.647 305.607C158.895 312.465 172.752 309.692 179.593 299.417C180.442 298.139 181.151 296.794 181.709 295.424C190.291 298.047 199.915 294.881 205.156 287.02C208.63 281.799 209.455 275.575 207.939 269.953C210.63 269.084 213.055 267.347 214.746 264.807C218.721 258.842 217.112 250.773 211.163 246.788C205.214 242.803 197.165 244.415 193.191 250.38C192.274 251.758 191.666 253.245 191.333 254.774C190.458 254.624 189.583 254.523 188.7 254.49C187.5 253.011 186.067 251.692 184.409 250.58C175.476 244.607 163.411 247.022 157.454 255.977C156.787 256.979 156.229 258.015 155.771 259.085C152.896 252.828 148.322 247.264 142.181 243.162C124.492 231.325 100.578 236.112 88.7718 253.847C76.9651 271.582 81.7394 295.557 99.4286 307.395V307.386Z" fill="#F5F0EE" stroke="#353537" stroke-miterlimit="10"/>
<path d="M143.648 267.729C149.538 260.395 160.154 258.657 168.119 263.979C169.786 265.098 171.219 266.443 172.394 267.947" fill="#F5F0EE"/>
<path d="M143.648 267.729C149.538 260.395 160.154 258.657 168.119 263.979C169.786 265.098 171.219 266.443 172.394 267.947" stroke="#353537" stroke-miterlimit="10"/>
<path d="M189.875 285.977C189.475 286.954 188.975 287.906 188.375 288.817C184.209 295.074 176.385 297.413 169.644 294.873" fill="#F5F0EE"/>
<path d="M189.875 285.977C189.475 286.954 188.975 287.906 188.375 288.817C184.209 295.074 176.385 297.413 169.644 294.873" stroke="#353537" stroke-miterlimit="10"/>
<path d="M182.359 264.256C182.601 263.754 182.875 263.262 183.192 262.785C186.725 257.481 193.874 256.052 199.165 259.586C199.473 259.786 199.765 260.004 200.04 260.229" fill="#F5F0EE"/>
<path d="M182.359 264.256C182.601 263.754 182.875 263.262 183.192 262.785C186.725 257.481 193.874 256.052 199.165 259.586C199.473 259.786 199.765 260.004 200.04 260.229" stroke="#353537" stroke-miterlimit="10"/>
<path d="M156.054 244.625C160.826 244.625 164.695 240.746 164.695 235.962C164.695 231.177 160.826 227.299 156.054 227.299C151.282 227.299 147.414 231.177 147.414 235.962C147.414 240.746 151.282 244.625 156.054 244.625Z" fill="#F5F0EE" stroke="#353537" stroke-miterlimit="10"/>
<path d="M145.281 234.65C152.832 234.65 158.954 228.512 158.954 220.941C158.954 213.37 152.832 207.232 145.281 207.232C137.729 207.232 131.608 213.37 131.608 220.941C131.608 228.512 137.729 234.65 145.281 234.65Z" fill="#F5F0EE" stroke="#353537" stroke-miterlimit="10"/>
<path d="M123.117 233.865C125.501 233.865 127.433 231.928 127.433 229.538C127.433 227.148 125.501 225.211 123.117 225.211C120.733 225.211 118.801 227.148 118.801 229.538C118.801 231.928 120.733 233.865 123.117 233.865Z" fill="#F5F0EE" stroke="#353537" stroke-miterlimit="10"/>
<path d="M188.758 320.002C191.938 320.002 194.516 317.418 194.516 314.23C194.516 311.041 191.938 308.457 188.758 308.457C185.578 308.457 183 311.041 183 314.23C183 317.418 185.578 320.002 188.758 320.002Z" fill="#F5F0EE" stroke="#353537" stroke-miterlimit="10"/>
</g>
<defs>
<clipPath id="clip0_45_6614">
<rect width="320" height="320" fill="white"/>
</clipPath>
</defs>
</svg>
