<svg width="320" height="320" viewBox="0 0 320 320" fill="none" xmlns="http://www.w3.org/2000/svg">
<g clip-path="url(#clip0_60_4739)">
<path d="M217.629 247.547C217.629 247.668 217.629 247.789 217.621 247.917C199.691 258.081 176.346 263.151 153.008 263.151V208.71C171.952 208.71 190.903 204.912 206.129 197.307C213.396 213.997 217.629 231.517 217.629 247.547Z" fill="#D7F75C" stroke="#353537" stroke-miterlimit="10"/>
<path d="M234.04 165.656C241.218 178.79 245.306 193.855 245.306 209.869C245.306 210.529 245.29 211.181 245.242 211.841C244.799 197.541 240.019 184.222 232.076 172.754C233.05 170.404 233.71 168.039 234.048 165.648L234.04 165.656Z" fill="#D7F75C" stroke="#353537" stroke-miterlimit="10"/>
<path d="M245.234 211.84C245.242 212.186 245.25 212.532 245.242 212.878C244.743 244.135 227.714 271.44 203.121 287.374C212.134 279.495 217.558 265.686 217.623 247.909C217.84 247.788 218.057 247.668 218.275 247.539C235.472 237.713 244.413 224.805 245.234 211.832V211.84Z" fill="#D7F75C" stroke="#353537" stroke-miterlimit="10"/>
<path d="M232.068 172.764C240.011 184.223 244.791 197.55 245.234 211.85C244.413 224.823 235.472 237.731 218.275 247.557C218.057 247.678 217.84 247.798 217.623 247.927C217.631 247.807 217.631 247.686 217.631 247.557C217.631 231.518 213.398 213.999 206.131 197.317C207.628 196.568 209.084 195.788 210.501 194.967C221.502 188.625 228.688 180.9 232.068 172.772V172.764Z" fill="#D7F75C" stroke="#353537" stroke-miterlimit="10"/>
<path d="M234.04 165.656C233.702 168.047 233.042 170.413 232.068 172.762C215.82 149.288 186.334 133.627 153.75 133.426C169.909 124.284 184.105 122.924 195.331 127.841C211.7 136.307 225.212 149.521 234.04 165.664V165.656Z" fill="#D7F75C" stroke="#353537" stroke-miterlimit="10"/>
<path d="M232.071 172.76C228.691 180.888 221.504 188.622 210.503 194.955C209.087 195.776 207.639 196.557 206.134 197.305C194.594 170.813 175.416 146.461 153.398 133.617C153.511 133.545 153.632 133.472 153.744 133.416C186.329 133.625 215.815 149.286 232.063 172.752L232.071 172.76Z" fill="#D7F75C" stroke="#353537" stroke-miterlimit="10"/>
<path d="M217.625 247.918C217.561 265.695 212.137 279.504 203.123 287.383C188.686 296.742 171.489 302.166 153.012 302.166V263.16C176.349 263.16 199.687 258.082 217.625 247.926V247.918Z" fill="#D7F75C" stroke="#353537" stroke-miterlimit="10"/>
<path d="M153.398 133.617C175.416 146.453 194.593 170.813 206.133 197.305C190.907 204.91 171.956 208.708 153.012 208.708V133.834C153.012 133.834 153.044 133.818 153.06 133.802C153.173 133.738 153.285 133.674 153.398 133.617Z" fill="#D7F75C" stroke="#353537" stroke-miterlimit="10"/>
<path d="M195.333 127.841C184.107 122.924 169.911 124.284 153.752 133.426C153.527 133.418 153.293 133.418 153.06 133.418C153.044 133.409 153.028 133.401 153.012 133.385V117.58C168.27 117.58 182.651 121.282 195.333 127.833V127.841Z" fill="#D7F75C" stroke="#353537" stroke-miterlimit="10"/>
<path d="M153.011 302.151C132.795 302.159 114.093 295.633 98.8913 284.567L98.9879 284.439C90.4817 275.409 86.8201 262.195 87.0534 247.146C87.2868 247.275 87.5202 247.42 87.7536 247.549C105.836 257.834 129.391 263.153 153.019 263.153V302.151H153.011Z" fill="#D7F75C" stroke="#353537" stroke-miterlimit="10"/>
<path d="M153.012 208.709V263.15C129.393 263.15 105.838 257.831 87.747 247.546C87.5136 247.409 87.2883 247.273 87.0469 247.144C87.3044 231.54 91.7627 213.964 99.4159 197.072C114.714 204.838 133.867 208.717 153.012 208.717V208.709Z" fill="#D7F75C" stroke="#353537" stroke-miterlimit="10"/>
<path d="M153.01 133.836V208.71C133.865 208.71 114.72 204.831 99.4141 197.065C111.083 171.257 130.188 147.018 153.01 133.828V133.836Z" fill="#D7F75C" stroke="#353537" stroke-miterlimit="10"/>
<path d="M153.009 133.41V133.837C130.187 147.027 111.082 171.258 99.413 197.074C98.0852 196.406 96.7815 195.698 95.51 194.957C84.5976 188.664 77.4353 181.011 74.0312 172.947C90.5849 149.932 120.691 133.426 153.009 133.41Z" fill="#D7F75C" stroke="#353537" stroke-miterlimit="10"/>
<path d="M153.011 117.588V133.377C138.445 124.992 124.305 123.415 113.449 126.473C125.44 120.767 138.855 117.58 153.011 117.58V117.588Z" fill="#D7F75C" stroke="#353537" stroke-miterlimit="10"/>
<path d="M113.451 126.482C124.307 123.424 138.447 125.001 153.013 133.387V133.419C120.694 133.435 90.5885 149.94 74.0348 172.956C73.0127 170.558 72.3367 168.128 71.9746 165.681C81.2936 148.637 95.8354 134.843 113.443 126.482H113.451Z" fill="#D7F75C" stroke="#353537" stroke-miterlimit="10"/>
<path d="M98.9804 284.437L98.8838 284.566C76.0853 268.004 61.1411 241.262 60.7306 211.149C60.7226 211.036 60.7226 210.915 60.7306 210.803C61.1169 223.952 69.8887 237.03 87.0379 247.145C86.8045 262.194 90.4661 275.408 98.9723 284.437H98.9804Z" fill="#D7F75C" stroke="#353537" stroke-miterlimit="10"/>
<path d="M95.5115 194.959C96.783 195.691 98.0867 196.4 99.4145 197.076C91.7614 213.975 87.3031 231.543 87.0455 247.147C69.8963 237.031 61.1246 223.962 60.7383 210.805C60.9073 197.389 65.8082 184.361 74.0327 172.949C77.4368 181.013 84.5991 188.666 95.5115 194.959Z" fill="#D7F75C" stroke="#353537" stroke-miterlimit="10"/>
<path d="M60.7227 209.869C60.7227 193.854 64.7947 178.797 71.9731 165.672C72.3352 168.118 73.0112 170.549 74.0332 172.947C65.8087 184.358 60.9077 197.387 60.7388 210.802C60.7307 210.496 60.7227 210.191 60.7227 209.885V209.869Z" fill="#D7F75C" stroke="#353537" stroke-miterlimit="10"/>
<path d="M245.234 142.133L230.201 171.675L249.66 177.799L245.234 142.133Z" fill="white" stroke="#3A3A3A" stroke-miterlimit="10"/>
<path d="M245.232 142.133L249.659 177.799L260.257 166.565L245.232 142.133Z" fill="#D8DCE0" stroke="#3A3A3A" stroke-miterlimit="10"/>
<path d="M221.554 70.0605L206.521 99.6029L225.972 105.727L221.554 70.0605Z" fill="white" stroke="#3A3A3A" stroke-miterlimit="10"/>
<path d="M221.553 70.0605L225.971 105.727L236.577 94.4927L221.553 70.0605Z" fill="#D8DCE0" stroke="#3A3A3A" stroke-miterlimit="10"/>
<path d="M182.4 0L167.367 29.5423L186.818 35.6584L182.4 0Z" fill="white" stroke="#3A3A3A" stroke-miterlimit="10"/>
<path d="M182.398 0L186.817 35.6584L197.423 24.4322L182.398 0Z" fill="#D8DCE0" stroke="#3A3A3A" stroke-miterlimit="10"/>
<path d="M140.74 284.334L125.707 313.876L145.166 320L140.74 284.334Z" fill="white" stroke="#3A3A3A" stroke-miterlimit="10"/>
<path d="M140.738 284.334L145.164 320L155.763 308.766L140.738 284.334Z" fill="#D8DCE0" stroke="#3A3A3A" stroke-miterlimit="10"/>
<path d="M98.2866 87.5254L83.2539 117.068L102.705 123.192L98.2866 87.5254Z" fill="white" stroke="#3A3A3A" stroke-miterlimit="10"/>
<path d="M98.2852 87.5254L102.703 123.192L113.31 111.966L98.2852 87.5254Z" fill="#D8DCE0" stroke="#3A3A3A" stroke-miterlimit="10"/>
<path d="M185.312 180.689L170.287 210.232L189.738 216.356L185.312 180.689Z" fill="white" stroke="#3A3A3A" stroke-miterlimit="10"/>
<path d="M185.312 180.689L189.739 216.356L200.345 205.122L185.312 180.689Z" fill="#D8DCE0" stroke="#3A3A3A" stroke-miterlimit="10"/>
<path d="M74.0327 190.877L59 220.419L78.4508 226.543L74.0327 190.877Z" fill="white" stroke="#3A3A3A" stroke-miterlimit="10"/>
<path d="M74.0312 190.877L78.4493 226.543L89.0559 215.317L74.0312 190.877Z" fill="#D8DCE0" stroke="#3A3A3A" stroke-miterlimit="10"/>
<path d="M125.706 147.412L110.682 176.954L130.132 183.071L125.706 147.412Z" fill="white" stroke="#3A3A3A" stroke-miterlimit="10"/>
<path d="M125.707 147.412L130.133 183.071L140.74 171.844L125.707 147.412Z" fill="#D8DCE0" stroke="#3A3A3A" stroke-miterlimit="10"/>
<path d="M148.255 41.5488L133.223 71.0912L152.673 77.2153L148.255 41.5488Z" fill="white" stroke="#3A3A3A" stroke-miterlimit="10"/>
<path d="M148.254 41.5488L152.672 77.2153L163.279 65.981L148.254 41.5488Z" fill="#D8DCE0" stroke="#3A3A3A" stroke-miterlimit="10"/>
<path d="M245.234 142.133L230.201 171.675L249.66 177.799L245.234 142.133Z" fill="white" stroke="#3A3A3A" stroke-miterlimit="10"/>
<path d="M245.232 142.133L249.659 177.799L260.257 166.565L245.232 142.133Z" fill="#D8DCE0" stroke="#3A3A3A" stroke-miterlimit="10"/>
<path d="M221.554 70.0605L206.521 99.6029L225.972 105.727L221.554 70.0605Z" fill="white" stroke="#3A3A3A" stroke-miterlimit="10"/>
<path d="M221.553 70.0605L225.971 105.727L236.577 94.4927L221.553 70.0605Z" fill="#D8DCE0" stroke="#3A3A3A" stroke-miterlimit="10"/>
<path d="M182.4 0L167.367 29.5423L186.818 35.6584L182.4 0Z" fill="white" stroke="#3A3A3A" stroke-miterlimit="10"/>
<path d="M182.398 0L186.817 35.6584L197.423 24.4322L182.398 0Z" fill="#D8DCE0" stroke="#3A3A3A" stroke-miterlimit="10"/>
<path d="M140.74 284.334L125.707 313.876L145.166 320L140.74 284.334Z" fill="white" stroke="#3A3A3A" stroke-miterlimit="10"/>
<path d="M140.738 284.334L145.164 320L155.763 308.766L140.738 284.334Z" fill="#D8DCE0" stroke="#3A3A3A" stroke-miterlimit="10"/>
<path d="M98.2866 87.5254L83.2539 117.068L102.705 123.192L98.2866 87.5254Z" fill="white" stroke="#3A3A3A" stroke-miterlimit="10"/>
<path d="M98.2852 87.5254L102.703 123.192L113.31 111.966L98.2852 87.5254Z" fill="#D8DCE0" stroke="#3A3A3A" stroke-miterlimit="10"/>
<path d="M185.312 180.689L170.287 210.232L189.738 216.356L185.312 180.689Z" fill="white" stroke="#3A3A3A" stroke-miterlimit="10"/>
<path d="M185.312 180.689L189.739 216.356L200.345 205.122L185.312 180.689Z" fill="#D8DCE0" stroke="#3A3A3A" stroke-miterlimit="10"/>
<path d="M74.0327 190.877L59 220.419L78.4508 226.543L74.0327 190.877Z" fill="white" stroke="#3A3A3A" stroke-miterlimit="10"/>
<path d="M74.0312 190.877L78.4493 226.543L89.0559 215.317L74.0312 190.877Z" fill="#D8DCE0" stroke="#3A3A3A" stroke-miterlimit="10"/>
<path d="M125.706 147.412L110.682 176.954L130.132 183.071L125.706 147.412Z" fill="white" stroke="#3A3A3A" stroke-miterlimit="10"/>
<path d="M125.707 147.412L130.133 183.071L140.74 171.844L125.707 147.412Z" fill="#D8DCE0" stroke="#3A3A3A" stroke-miterlimit="10"/>
<path d="M148.255 41.5488L133.223 71.0912L152.673 77.2153L148.255 41.5488Z" fill="white" stroke="#3A3A3A" stroke-miterlimit="10"/>
<path d="M148.254 41.5488L152.672 77.2153L163.279 65.981L148.254 41.5488Z" fill="#D8DCE0" stroke="#3A3A3A" stroke-miterlimit="10"/>
</g>
<defs>
<clipPath id="clip0_60_4739">
<rect width="320" height="320" fill="white"/>
</clipPath>
</defs>
</svg>
