<svg width="320" height="320" viewBox="0 0 320 320" fill="none" xmlns="http://www.w3.org/2000/svg">
<g clip-path="url(#clip0_45_8706)">
<path d="M52.7394 211.451H27.2759C19.7669 211.451 13.6797 217.538 13.6797 225.047V250.511C13.6797 258.02 19.7669 264.107 27.2759 264.107H52.7394C60.2484 264.107 66.3356 258.02 66.3356 250.511V225.047C66.3356 217.538 60.2484 211.451 52.7394 211.451Z" fill="#F5F0EE" stroke="#353537" stroke-linecap="round" stroke-linejoin="round"/>
<path d="M39.9986 236.315C43.2317 236.315 45.8526 233.695 45.8526 230.461C45.8526 227.228 43.2317 224.607 39.9986 224.607C36.7655 224.607 34.1445 227.228 34.1445 230.461C34.1445 233.695 36.7655 236.315 39.9986 236.315Z" fill="#F5F0EE" stroke="#353537" stroke-linecap="round" stroke-linejoin="round"/>
<path d="M53.1639 252.408C53.1639 245.136 47.272 239.244 39.9999 239.244C32.7279 239.244 26.8359 245.136 26.8359 252.408H53.1639Z" fill="#F5F0EE" stroke="#353537" stroke-linecap="round" stroke-linejoin="round"/>
<path d="M250.868 263.712C284.354 263.712 311.501 236.565 311.501 203.078C311.501 169.592 284.354 142.445 250.868 142.445C217.381 142.445 190.234 169.592 190.234 203.078C190.234 236.565 217.381 263.712 250.868 263.712Z" fill="#F0926C" stroke="#353537" stroke-linecap="round" stroke-linejoin="round"/>
<path d="M253.34 186.496C242.587 184.146 231.486 190.03 227.588 200.654L225.806 205.507C224.381 209.397 226.375 213.712 230.273 215.145C234.17 216.578 238.477 214.576 239.91 210.678L240.76 207.895C242.185 204.005 246.5 202.003 250.398 203.429C254.288 204.855 256.29 209.169 254.864 213.067L252.748 218.838" stroke="#353537" stroke-linecap="round" stroke-linejoin="round"/>
<path d="M260.359 189.332C269.209 194.799 273.303 205.908 269.58 216.054L264.795 229.105" stroke="#353537" stroke-linecap="round" stroke-linejoin="round"/>
<path d="M224.955 188.239C228.906 183.667 234.093 180.384 239.802 178.73" stroke="#353537" stroke-linecap="round" stroke-linejoin="round"/>
<path d="M247.242 177.54C251.14 177.396 255.136 177.995 259.026 179.421C271.455 183.978 279.197 195.679 279.31 208.183" stroke="#353537" stroke-linecap="round" stroke-linejoin="round"/>
<path d="M236.867 169.669C244.928 167.273 253.807 167.356 262.308 170.473C271.028 173.673 277.982 179.557 282.585 186.852" stroke="#353537" stroke-linecap="round" stroke-linejoin="round"/>
<path d="M261.003 201.974C259.456 198.963 256.817 196.499 253.39 195.24C246.148 192.586 238.125 196.302 235.464 203.543L234.068 207.35" stroke="#353537" stroke-linecap="round" stroke-linejoin="round"/>
<path d="M262.817 210.283C262.817 210.283 263.734 220.278 250.123 236.27" stroke="#353537" stroke-linecap="round" stroke-linejoin="round"/>
<path d="M247.264 227.654C247.264 227.654 242.601 233.501 239.34 235.495" stroke="#353537" stroke-linecap="round" stroke-linejoin="round"/>
<path d="M247.462 211.838C247.462 211.838 242.632 224.835 231.621 231.159" stroke="#353537" stroke-linecap="round" stroke-linejoin="round"/>
<path d="M239.908 210.678C239.908 210.678 235.768 221.028 226.623 224.38" stroke="#353537" stroke-linecap="round" stroke-linejoin="round"/>
<path d="M171.417 76.8107C153.807 76.2634 139.087 90.0956 138.54 107.706C137.992 125.316 151.825 140.035 169.435 140.583L237.823 142.708C255.433 143.255 270.152 129.423 270.7 111.813C271.247 94.2027 257.415 79.4832 239.805 78.9359L171.417 76.8107Z" fill="#E5F887" stroke="#353537" stroke-linecap="round" stroke-linejoin="round"/>
<path d="M162.6 127.114C162.6 127.114 184.924 116.377 187.638 102.75C190.346 89.1236 183.642 84.3463 178.789 93.3321C173.936 102.318 171.714 125.12 182.679 127.736C193.637 130.352 202.911 126.075 210.114 114.868C217.318 103.668 206.118 96.4639 203.479 107.808C200.84 119.152 207.475 126.212 214.467 121.859C221.458 117.507 221.602 112.942 219.32 112.866C217.038 112.798 214.967 120.274 220.465 120.1C225.963 119.925 230.664 115.505 230.876 108.657C231.089 101.81 228.806 101.734 228.806 101.734C228.806 101.734 226.524 101.666 226.311 108.513C226.099 115.361 230.52 120.07 237.375 120.282C244.23 120.494 246.581 118.28 246.581 118.28" stroke="#353537" stroke-linecap="round" stroke-linejoin="round"/>
<path d="M101.124 122.722L115.653 112.591C122.409 107.875 131.714 109.535 136.43 116.292L187.911 190.112C192.627 196.868 190.967 206.172 184.21 210.889L112.658 260.785C105.901 265.501 96.597 263.841 91.8804 257.084L40.3998 183.264C35.6832 176.508 37.3439 167.204 44.1003 162.487L58.0832 152.735" fill="#F5F0EE"/>
<path d="M101.124 122.722L115.653 112.591C122.409 107.875 131.714 109.535 136.43 116.292L187.911 190.112C192.627 196.868 190.967 206.172 184.21 210.889L112.658 260.785C105.901 265.501 96.597 263.841 91.8804 257.084L40.3998 183.264C35.6832 176.508 37.3439 167.204 44.1003 162.487L58.0832 152.735" stroke="#353537" stroke-linecap="round" stroke-linejoin="round"/>
<path d="M106.598 130.577L120.429 120.931C123.341 118.899 127.345 119.612 129.377 122.524L179.629 194.577C181.662 197.489 180.949 201.492 178.037 203.525L107.895 252.442C104.983 254.474 100.979 253.762 98.947 250.85L48.6948 178.797C46.6626 175.885 47.3754 171.881 50.2873 169.849L63.5043 160.635" fill="#249A6C"/>
<path d="M106.598 130.577L120.429 120.931C123.341 118.899 127.345 119.612 129.377 122.524L179.629 194.577C181.662 197.489 180.949 201.492 178.037 203.525L107.895 252.442C104.983 254.474 100.979 253.761 98.947 250.85L48.6948 178.797C46.6626 175.885 47.3754 171.881 50.2873 169.849L63.5043 160.635" stroke="#353537" stroke-linecap="round" stroke-linejoin="round"/>
<path d="M91.6914 175.067L122.948 153.266" stroke="#353537" stroke-linecap="round" stroke-linejoin="round"/>
<path d="M74.649 177.657L67.0483 182.957C65.6949 183.901 65.3628 185.763 66.3066 187.117L71.607 194.717C72.5508 196.071 74.4131 196.403 75.7666 195.459L83.3673 190.159C84.7208 189.215 85.0529 187.353 84.109 185.999L78.8087 178.398C77.8648 177.045 76.0025 176.713 74.649 177.657Z" fill="#E5F887" stroke="#353537" stroke-linecap="round" stroke-linejoin="round"/>
<path d="M123.721 220.383L142.185 207.5" stroke="#353537" stroke-linecap="round" stroke-linejoin="round"/>
<path d="M106.399 223.166L98.7983 228.467C97.4449 229.411 97.1128 231.273 98.0566 232.626L103.357 240.227C104.301 241.581 106.163 241.913 107.517 240.969L115.117 235.668C116.471 234.725 116.803 232.862 115.859 231.509L110.559 223.908C109.615 222.555 107.753 222.223 106.399 223.166Z" fill="#E5F887" stroke="#353537" stroke-linecap="round" stroke-linejoin="round"/>
<path d="M107.965 198.391L148.306 170.258" stroke="#353537" stroke-linecap="round" stroke-linejoin="round"/>
<path d="M90.9205 200.979L83.3198 206.279C81.9663 207.223 81.6343 209.085 82.5781 210.439L87.8785 218.04C88.8223 219.393 90.6846 219.725 92.0381 218.781L99.6388 213.481C100.992 212.537 101.324 210.675 100.381 209.321L95.0801 201.721C94.1363 200.367 92.274 200.035 90.9205 200.979Z" fill="#E5F887" stroke="#353537" stroke-linecap="round" stroke-linejoin="round"/>
<path d="M87.0664 210.382L93.5043 212.346L95.8247 197.514" stroke="#353537" stroke-linecap="round" stroke-linejoin="round"/>
<path d="M102.988 232.372L109.426 234.336L111.747 219.504" stroke="#353537" stroke-linecap="round" stroke-linejoin="round"/>
<path d="M71.1406 187.632L77.5785 189.596L79.8989 174.764" stroke="#353537" stroke-linecap="round" stroke-linejoin="round"/>
<path d="M85.8297 127.9L97.3103 119.893C97.9094 119.475 98.7283 119.62 99.1454 120.219L110.323 136.241C110.74 136.84 110.596 137.659 109.997 138.076L69.5416 166.293C68.9425 166.71 68.1236 166.566 67.7065 165.966L56.5293 149.944C56.1122 149.345 56.2563 148.526 56.8553 148.109L68.8591 139.737" fill="#F5F0EE"/>
<path d="M85.8297 127.9L97.3103 119.893C97.9094 119.475 98.7283 119.62 99.1454 120.219L110.323 136.241C110.74 136.84 110.596 137.659 109.997 138.076L69.5416 166.293C68.9425 166.71 68.1236 166.566 67.7065 165.966L56.5293 149.944C56.1122 149.345 56.2563 148.526 56.8553 148.109L68.8591 139.737" stroke="#353537" stroke-linecap="round" stroke-linejoin="round"/>
<path d="M78.0937 145.371C83.8312 145.371 88.4823 140.72 88.4823 134.982C88.4823 129.245 83.8312 124.594 78.0937 124.594C72.3562 124.594 67.7051 129.245 67.7051 134.982C67.7051 140.72 72.3562 145.371 78.0937 145.371Z" fill="#F5F0EE" stroke="#353537" stroke-linecap="round" stroke-linejoin="round"/>
<path d="M78.0943 138.448C80.0082 138.448 81.5597 136.897 81.5597 134.983C81.5597 133.069 80.0082 131.518 78.0943 131.518C76.1804 131.518 74.6289 133.069 74.6289 134.983C74.6289 136.897 76.1804 138.448 78.0943 138.448Z" stroke="#353537" stroke-linecap="round" stroke-linejoin="round"/>
<path d="M177.738 264.282C189.828 264.282 199.63 254.481 199.63 242.39C199.63 230.299 189.828 220.498 177.738 220.498C165.647 220.498 155.846 230.299 155.846 242.39C155.846 254.481 165.647 264.282 177.738 264.282Z" fill="#F5F0EE" stroke="#353537" stroke-linecap="round" stroke-linejoin="round"/>
<path d="M172.535 230.383L165.452 239.968C164.762 240.908 165.718 242.167 166.802 241.757L185.532 234.705C186.624 234.296 186.503 232.719 185.365 232.468L173.718 229.943C173.27 229.845 172.8 230.019 172.527 230.391L172.535 230.383Z" fill="#F5F0EE" stroke="#353537" stroke-linecap="round" stroke-linejoin="round"/>
<path d="M173.605 239.192L168.475 241.125L172.909 252.898L178.04 250.965L173.605 239.192Z" fill="#F5F0EE" stroke="#353537" stroke-linecap="round" stroke-linejoin="round"/>
<path d="M183.869 235.329L178.738 237.262L183.173 249.034L188.303 247.102L183.869 235.329Z" fill="#F5F0EE" stroke="#353537" stroke-linecap="round" stroke-linejoin="round"/>
<path d="M190.963 246.096L170.242 253.901C169.63 254.132 169.321 254.814 169.552 255.425L169.969 256.532C170.199 257.144 170.881 257.453 171.493 257.222L192.214 249.417C192.825 249.187 193.134 248.505 192.904 247.893L192.487 246.786C192.256 246.175 191.574 245.866 190.963 246.096Z" fill="#F5F0EE" stroke="#353537" stroke-linecap="round" stroke-linejoin="round"/>
<path d="M0 264.531H320" stroke="#353537" stroke-linecap="round" stroke-linejoin="round"/>
<path d="M143.318 81.7812L131.186 72.6816" stroke="#FBC6F1" stroke-linecap="round" stroke-linejoin="round"/>
<path d="M148.627 77.2322L132.703 56" stroke="#FBC6F1" stroke-linecap="round" stroke-linejoin="round"/>
<path d="M153.175 74.1986L150.9 59.791" stroke="#FBC6F1" stroke-linecap="round" stroke-linejoin="round"/>
</g>
<defs>
<clipPath id="clip0_45_8706">
<rect width="320" height="320" fill="white"/>
</clipPath>
</defs>
</svg>
