<svg width="320" height="320" viewBox="0 0 320 320" fill="none" xmlns="http://www.w3.org/2000/svg">
<g clip-path="url(#clip0_45_5876)">
<g clip-path="url(#clip1_45_5876)">
<path d="M284.773 310.331H38.6768L141.219 53.1289H182.231L284.773 310.331Z" fill="#894CEE" stroke="#353537" stroke-miterlimit="10"/>
<path d="M96.7423 175.709C88.4242 175.709 81.6803 182.467 81.6803 190.803H78.4731C78.4731 182.467 71.7293 175.709 63.4111 175.709V172.496C71.7293 172.496 78.4731 165.738 78.4731 157.402H81.6803C81.6803 165.738 88.4242 172.496 96.7423 172.496V175.709Z" fill="#FBC6F1" stroke="#353537" stroke-miterlimit="10"/>
<path d="M109.557 239.437C103.794 239.437 99.13 244.119 99.13 249.886H96.9114C96.9114 244.111 92.2397 239.437 86.4844 239.437V237.214C92.247 237.214 96.9114 232.533 96.9114 226.766H99.13C99.13 232.54 103.802 237.214 109.557 237.214V239.437Z" fill="#FBC6F1" stroke="#353537" stroke-miterlimit="10"/>
<path d="M277.808 98.9382C272.99 98.9382 269.08 102.856 269.08 107.684H267.22C267.22 102.856 263.31 98.9382 258.492 98.9382V97.0744C263.31 97.0744 267.22 93.1562 267.22 88.3281H269.08C269.08 93.1562 272.99 97.0744 277.808 97.0744V98.9382Z" fill="#FBC6F1" stroke="#353537" stroke-miterlimit="10"/>
<path d="M225.93 107.919C222.547 107.919 219.809 110.663 219.809 114.053H218.505C218.505 110.663 215.767 107.919 212.384 107.919V106.613C215.767 106.613 218.505 103.868 218.505 100.479H219.809C219.809 103.868 222.547 106.613 225.93 106.613V107.919Z" fill="#FBC6F1" stroke="#353537" stroke-miterlimit="10"/>
<path d="M53.1088 191.669C49.7259 191.669 46.9873 194.413 46.9873 197.803H45.684C45.684 194.413 42.9454 191.669 39.5625 191.669V190.363C42.9454 190.363 45.684 187.618 45.684 184.229H46.9873C46.9873 187.618 49.7259 190.363 53.1088 190.363V191.669Z" fill="#FBC6F1" stroke="#353537" stroke-miterlimit="10"/>
<path d="M285.497 148.694C280.071 148.694 275.67 153.104 275.67 158.541H273.583C273.583 153.104 269.183 148.694 263.757 148.694V146.603C269.183 146.603 273.583 142.193 273.583 136.756H275.67C275.67 142.193 280.071 146.603 285.497 146.603V148.694Z" fill="#FBC6F1" stroke="#353537" stroke-miterlimit="10"/>
<path d="M177.061 59.5503C179.358 59.5503 181.22 57.6843 181.22 55.3825C181.22 53.0808 179.358 51.2148 177.061 51.2148C174.764 51.2148 172.902 53.0808 172.902 55.3825C172.902 57.6843 174.764 59.5503 177.061 59.5503Z" fill="#E5F887" stroke="#353537" stroke-miterlimit="10"/>
<path d="M172.499 75.5892L173.649 91.3281C173.7 91.9885 174.249 92.5021 174.916 92.5021H178.87C179.536 92.5021 180.085 91.9885 180.136 91.3281L181.286 75.5892C181.323 75.1343 181.696 74.7821 182.15 74.7821H183.549C184.266 74.7821 184.845 74.2024 184.845 73.4833V68.846C184.845 64.5903 181.352 61.127 177.054 61.127C172.755 61.127 169.263 64.5903 169.263 68.846V73.4833C169.263 74.2024 169.841 74.7821 170.559 74.7821H171.628C172.082 74.7821 172.455 75.1343 172.492 75.5892H172.499Z" fill="#E5F887" stroke="#353537" stroke-miterlimit="10"/>
<path d="M196.641 124.451C198.938 124.451 200.801 122.585 200.801 120.283C200.801 117.981 198.938 116.115 196.641 116.115C194.344 116.115 192.482 117.981 192.482 120.283C192.482 122.585 194.344 124.451 196.641 124.451Z" fill="#E5F887" stroke="#353537" stroke-miterlimit="10"/>
<path d="M192.079 140.49L193.229 156.229C193.28 156.889 193.829 157.403 194.496 157.403H198.45C199.116 157.403 199.665 156.889 199.716 156.229L200.866 140.49C200.903 140.035 201.276 139.682 201.73 139.682H203.129C203.846 139.682 204.425 139.103 204.425 138.384V133.746C204.425 129.491 200.932 126.027 196.634 126.027C192.336 126.027 188.843 129.491 188.843 133.746V138.384C188.843 139.103 189.421 139.682 190.139 139.682H191.208C191.662 139.682 192.035 140.035 192.072 140.49H192.079Z" fill="#E5F887" stroke="#353537" stroke-miterlimit="10"/>
<path d="M115.342 157.777C117.639 157.777 119.501 155.911 119.501 153.609C119.501 151.307 117.639 149.441 115.342 149.441C113.045 149.441 111.183 151.307 111.183 153.609C111.183 155.911 113.045 157.777 115.342 157.777Z" fill="#E5F887" stroke="#353537" stroke-miterlimit="10"/>
<path d="M110.779 173.816L111.929 189.555C111.98 190.215 112.529 190.729 113.196 190.729H117.15C117.816 190.729 118.365 190.215 118.417 189.555L119.566 173.816C119.603 173.361 119.976 173.009 120.43 173.009H121.829C122.546 173.009 123.125 172.429 123.125 171.71V167.073C123.125 162.817 119.632 159.354 115.334 159.354C111.036 159.354 107.543 162.817 107.543 167.073V171.71C107.543 172.429 108.121 173.009 108.839 173.009H109.908C110.362 173.009 110.736 173.361 110.772 173.816H110.779Z" fill="#E5F887" stroke="#353537" stroke-miterlimit="10"/>
<path d="M80.077 274.04C82.374 274.04 84.2361 272.175 84.2361 269.873C84.2361 267.571 82.374 265.705 80.077 265.705C77.7801 265.705 75.918 267.571 75.918 269.873C75.918 272.175 77.7801 274.04 80.077 274.04Z" stroke="#353537" stroke-miterlimit="10"/>
<path d="M75.5226 290.079L76.6722 305.818C76.7235 306.479 77.2726 306.992 77.939 306.992H81.893C82.5593 306.992 83.1085 306.479 83.1598 305.818L84.3094 290.079C84.346 289.624 84.7194 289.272 85.1734 289.272H86.572C87.2896 289.272 87.868 288.693 87.868 287.974V283.336C87.868 279.08 84.3753 275.617 80.0771 275.617C75.7789 275.617 72.2861 279.08 72.2861 283.336V287.974C72.2861 288.693 72.8646 289.272 73.5822 289.272H74.6512C75.1052 289.272 75.4787 289.624 75.5153 290.079H75.5226Z" stroke="#353537" stroke-miterlimit="10"/>
<path d="M8.34072 274.04C10.6377 274.04 12.4998 272.175 12.4998 269.873C12.4998 267.571 10.6377 265.705 8.34072 265.705C6.04372 265.705 4.18164 267.571 4.18164 269.873C4.18164 272.175 6.04372 274.04 8.34072 274.04Z" stroke="#353537" stroke-miterlimit="10"/>
<path d="M3.77846 290.079L4.92806 305.818C4.97932 306.479 5.52849 306.992 6.19482 306.992H10.1489C10.8152 306.992 11.3644 306.479 11.4156 305.818L12.5652 290.079C12.6019 289.624 12.9753 289.272 13.4293 289.272H14.8278C15.5454 289.272 16.1239 288.693 16.1239 287.974V283.336C16.1239 279.08 12.6311 275.617 8.33294 275.617C4.03474 275.617 0.541992 279.08 0.541992 283.336V287.974C0.541992 288.693 1.12046 289.272 1.83804 289.272H2.9071C3.36109 289.272 3.73452 289.624 3.77113 290.079H3.77846Z" stroke="#353537" stroke-miterlimit="10"/>
<path d="M289.319 274.04C291.616 274.04 293.478 272.175 293.478 269.873C293.478 267.571 291.616 265.705 289.319 265.705C287.022 265.705 285.16 267.571 285.16 269.873C285.16 272.175 287.022 274.04 289.319 274.04Z" stroke="#353537" stroke-miterlimit="10"/>
<path d="M284.765 290.079L285.914 305.818C285.966 306.479 286.515 306.992 287.181 306.992H291.135C291.802 306.992 292.351 306.479 292.402 305.818L293.552 290.079C293.588 289.624 293.962 289.272 294.416 289.272H295.814C296.532 289.272 297.11 288.693 297.11 287.974V283.336C297.11 279.08 293.617 275.617 289.319 275.617C285.021 275.617 281.528 279.08 281.528 283.336V287.974C281.528 288.693 282.107 289.272 282.824 289.272H283.893C284.347 289.272 284.721 289.624 284.757 290.079H284.765Z" stroke="#353537" stroke-miterlimit="10"/>
<path d="M311.66 274.04C313.957 274.04 315.819 272.175 315.819 269.873C315.819 267.571 313.957 265.705 311.66 265.705C309.363 265.705 307.501 267.571 307.501 269.873C307.501 272.175 309.363 274.04 311.66 274.04Z" stroke="#353537" stroke-miterlimit="10"/>
<path d="M307.098 290.079L308.247 305.818C308.299 306.479 308.848 306.992 309.514 306.992H313.468C314.135 306.992 314.684 306.479 314.735 305.818L315.885 290.079C315.921 289.624 316.295 289.272 316.749 289.272H318.147C318.865 289.272 319.443 288.693 319.443 287.974V283.336C319.443 279.08 315.95 275.617 311.652 275.617C307.354 275.617 303.861 279.08 303.861 283.336V287.974C303.861 288.693 304.44 289.272 305.157 289.272H306.226C306.68 289.272 307.054 289.624 307.09 290.079H307.098Z" stroke="#353537" stroke-miterlimit="10"/>
<path d="M148.696 274.04C150.993 274.04 152.855 272.175 152.855 269.873C152.855 267.571 150.993 265.705 148.696 265.705C146.399 265.705 144.537 267.571 144.537 269.873C144.537 272.175 146.399 274.04 148.696 274.04Z" stroke="#353537" stroke-miterlimit="10"/>
<path d="M144.142 290.079L145.291 305.818C145.343 306.479 145.892 306.992 146.558 306.992H150.512C151.178 306.992 151.728 306.479 151.779 305.818L152.929 290.079C152.965 289.624 153.339 289.272 153.793 289.272H155.191C155.909 289.272 156.487 288.693 156.487 287.974V283.336C156.487 279.08 152.994 275.617 148.696 275.617C144.398 275.617 140.905 279.08 140.905 283.336V287.974C140.905 288.693 141.484 289.272 142.201 289.272H143.27C143.724 289.272 144.098 289.624 144.134 290.079H144.142Z" stroke="#353537" stroke-miterlimit="10"/>
<path d="M210.598 274.04C212.895 274.04 214.757 272.175 214.757 269.873C214.757 267.571 212.895 265.705 210.598 265.705C208.301 265.705 206.438 267.571 206.438 269.873C206.438 272.175 208.301 274.04 210.598 274.04Z" stroke="#353537" stroke-miterlimit="10"/>
<path d="M206.035 290.079L207.185 305.818C207.236 306.479 207.785 306.992 208.452 306.992H212.406C213.072 306.992 213.621 306.479 213.672 305.818L214.822 290.079C214.859 289.624 215.232 289.272 215.686 289.272H217.085C217.802 289.272 218.381 288.693 218.381 287.974V283.336C218.381 279.08 214.888 275.617 210.59 275.617C206.292 275.617 202.799 279.08 202.799 283.336V287.974C202.799 288.693 203.377 289.272 204.095 289.272H205.164C205.618 289.272 205.991 289.624 206.028 290.079H206.035Z" stroke="#353537" stroke-miterlimit="10"/>
<path d="M240.897 274.04C243.194 274.04 245.056 272.175 245.056 269.873C245.056 267.571 243.194 265.705 240.897 265.705C238.6 265.705 236.738 267.571 236.738 269.873C236.738 272.175 238.6 274.04 240.897 274.04Z" stroke="#353537" stroke-miterlimit="10"/>
<path d="M236.343 290.079L237.493 305.818C237.544 306.479 238.093 306.992 238.759 306.992H242.713C243.38 306.992 243.929 306.479 243.98 305.818L245.13 290.079C245.166 289.624 245.54 289.272 245.994 289.272H247.392C248.11 289.272 248.688 288.693 248.688 287.974V283.336C248.688 279.08 245.196 275.617 240.897 275.617C236.599 275.617 233.106 279.08 233.106 283.336V287.974C233.106 288.693 233.685 289.272 234.402 289.272H235.472C235.926 289.272 236.299 289.624 236.336 290.079H236.343Z" stroke="#353537" stroke-miterlimit="10"/>
<path d="M169.27 139.763C171.567 139.763 173.429 137.897 173.429 135.595C173.429 133.294 171.567 131.428 169.27 131.428C166.973 131.428 165.111 133.294 165.111 135.595C165.111 137.897 166.973 139.763 169.27 139.763Z" fill="#E5F887" stroke="#353537" stroke-miterlimit="10"/>
<path d="M164.708 155.802L165.858 171.541C165.909 172.201 166.458 172.715 167.125 172.715H171.079C171.745 172.715 172.294 172.201 172.345 171.541L173.495 155.802C173.532 155.347 173.905 154.995 174.359 154.995H175.758C176.475 154.995 177.054 154.415 177.054 153.696V149.059C177.054 144.803 173.561 141.34 169.263 141.34C164.964 141.34 161.472 144.803 161.472 149.059V153.696C161.472 154.415 162.05 154.995 162.768 154.995H163.837C164.291 154.995 164.664 155.347 164.701 155.802H164.708Z" fill="#E5F887" stroke="#353537" stroke-miterlimit="10"/>
<path d="M125.79 237.148C125.79 231.828 142.536 227.514 163.185 227.514C183.834 227.514 200.58 231.828 200.58 237.148" stroke="#353537" stroke-miterlimit="10"/>
<path d="M125.79 221.283C125.79 215.963 142.536 211.648 163.185 211.648C183.834 211.648 200.58 215.963 200.58 221.283" stroke="#353537" stroke-miterlimit="10"/>
<path d="M125.79 205.419C125.79 200.1 142.536 195.785 163.185 195.785C183.834 195.785 200.58 200.1 200.58 205.419" stroke="#353537" stroke-miterlimit="10"/>
<path d="M125.79 189.564C125.79 184.244 142.536 179.93 163.185 179.93C183.834 179.93 200.58 184.244 200.58 189.564" stroke="#353537" stroke-miterlimit="10"/>
<path d="M163.193 180.994C168.555 180.994 172.902 176.638 172.902 171.265C172.902 165.891 168.555 161.535 163.193 161.535C157.83 161.535 153.483 165.891 153.483 171.265C153.483 176.638 157.83 180.994 163.193 180.994Z" fill="#F0926C" stroke="#353537" stroke-miterlimit="10"/>
<path d="M152.553 218.423L155.241 255.162C155.35 256.711 156.639 257.907 158.191 257.907H167.425C168.977 257.907 170.259 256.711 170.376 255.162L173.07 218.423C173.151 217.367 174.03 216.545 175.084 216.545H178.35C180.027 216.545 181.381 215.188 181.381 213.507V202.677C181.381 192.742 173.224 184.656 163.2 184.656C153.176 184.656 145.019 192.742 145.019 202.677V213.507C145.019 215.188 146.373 216.545 148.05 216.545H150.547C151.609 216.545 152.487 217.367 152.561 218.423H152.553Z" fill="#F0926C" stroke="#353537" stroke-miterlimit="10"/>
<path d="M200.588 237.146C200.588 242.466 183.842 246.781 163.193 246.781C142.544 246.781 125.798 242.466 125.798 237.146" stroke="#353537" stroke-miterlimit="10"/>
<path d="M200.588 221.283C200.588 226.603 183.842 230.917 163.193 230.917C142.544 230.917 125.798 226.603 125.798 221.283" stroke="#353537" stroke-miterlimit="10"/>
<path d="M200.588 205.42C200.588 210.74 183.842 215.054 163.193 215.054C142.544 215.054 125.798 210.74 125.798 205.42" stroke="#353537" stroke-miterlimit="10"/>
<path d="M200.588 189.564C200.588 194.884 183.842 199.199 163.193 199.199C142.544 199.199 125.798 194.884 125.798 189.564" stroke="#353537" stroke-miterlimit="10"/>
<path d="M145.004 106.708C147.301 106.708 149.163 104.843 149.163 102.541C149.163 100.239 147.301 98.373 145.004 98.373C142.707 98.373 140.845 100.239 140.845 102.541C140.845 104.843 142.707 106.708 145.004 106.708Z" fill="#E5F887" stroke="#353537" stroke-miterlimit="10"/>
<path d="M140.449 122.747L141.599 138.486C141.65 139.147 142.199 139.66 142.866 139.66H146.82C147.486 139.66 148.035 139.147 148.087 138.486L149.236 122.747C149.273 122.292 149.646 121.94 150.1 121.94H151.499C152.216 121.94 152.795 121.361 152.795 120.642V116.004C152.795 111.748 149.302 108.285 145.004 108.285C140.706 108.285 137.213 111.748 137.213 116.004V120.642C137.213 121.361 137.791 121.94 138.509 121.94H139.578C140.032 121.94 140.405 122.292 140.442 122.747H140.449Z" fill="#E5F887" stroke="#353537" stroke-miterlimit="10"/>
<path d="M153.483 52.396C155.78 52.396 157.642 50.53 157.642 48.2283C157.642 45.9265 155.78 44.0605 153.483 44.0605C151.186 44.0605 149.324 45.9265 149.324 48.2283C149.324 50.53 151.186 52.396 153.483 52.396Z" fill="#E5F887" stroke="#353537" stroke-miterlimit="10"/>
<path d="M148.921 68.4349L150.071 84.1738C150.122 84.8342 150.671 85.3478 151.337 85.3478H155.291C155.958 85.3478 156.507 84.8342 156.558 84.1738L157.708 68.4349C157.744 67.98 158.118 67.6278 158.572 67.6278H159.97C160.688 67.6278 161.266 67.0481 161.266 66.329V61.6917C161.266 57.436 157.774 53.9727 153.476 53.9727C149.177 53.9727 145.685 57.436 145.685 61.6917V66.329C145.685 67.0481 146.263 67.6278 146.981 67.6278H148.05C148.504 67.6278 148.877 67.98 148.914 68.4349H148.921Z" fill="#E5F887" stroke="#353537" stroke-miterlimit="10"/>
<path d="M161.267 68.2893C209.152 68.2893 247.971 59.2125 247.971 48.0157C247.971 36.819 209.152 27.7422 161.267 27.7422C113.382 27.7422 74.5635 36.819 74.5635 48.0157C74.5635 59.2125 113.382 68.2893 161.267 68.2893Z" fill="#F5EFED" stroke="#353537" stroke-miterlimit="10"/>
<path d="M126.582 42.2267C126.582 24.6313 142.969 10.3672 163.186 10.3672C183.403 10.3672 199.79 24.6313 199.79 42.2267C199.79 42.2267 192.08 48.0159 161.253 48.0159C130.426 48.0159 126.574 42.2267 126.574 42.2267H126.582Z" fill="#F5EFED" stroke="#353537" stroke-miterlimit="10"/>
<path d="M268.832 131.2C258.778 131.2 250.621 139.367 250.621 149.449H246.748C246.748 139.374 238.598 131.2 228.537 131.2V127.319C238.591 127.319 246.748 119.152 246.748 109.07H250.621C250.621 119.145 258.771 127.319 268.832 127.319V131.2Z" fill="#FBC6F1" stroke="#353537" stroke-miterlimit="10"/>
</g>
</g>
<defs>
<clipPath id="clip0_45_5876">
<rect width="320" height="320" fill="white"/>
</clipPath>
<clipPath id="clip1_45_5876">
<rect width="320" height="300.698" fill="white" transform="translate(0 10)"/>
</clipPath>
</defs>
</svg>
